<?xml version="1.0" encoding="UTF-8" standalone="no"?>
<!-- Created with Inkscape (http://www.inkscape.org/) -->

<svg
   xmlns:dc="http://purl.org/dc/elements/1.1/"
   xmlns:cc="http://creativecommons.org/ns#"
   xmlns:rdf="http://www.w3.org/1999/02/22-rdf-syntax-ns#"
   xmlns:svg="http://www.w3.org/2000/svg"
   xmlns="http://www.w3.org/2000/svg"
   xmlns:sodipodi="http://sodipodi.sourceforge.net/DTD/sodipodi-0.dtd"
   xmlns:inkscape="http://www.inkscape.org/namespaces/inkscape"
   width="210mm"
   height="297mm"
   viewBox="0 0 210 297"
   version="1.1"
   id="svg8"
   inkscape:version="0.92.5 (2060ec1f9f, 2020-04-08)"
   sodipodi:docname="logo.svg">
  <defs
     id="defs2" />
  <sodipodi:namedview
     id="base"
     pagecolor="#ffffff"
     bordercolor="#666666"
     borderopacity="1.0"
     inkscape:pageopacity="0.0"
     inkscape:pageshadow="2"
     inkscape:zoom="0.38531357"
     inkscape:cx="-109.27356"
     inkscape:cy="490.83511"
     inkscape:document-units="mm"
     inkscape:current-layer="layer2"
     showgrid="false"
     showborder="false"
     inkscape:pagecheckerboard="true"
     inkscape:window-width="1920"
     inkscape:window-height="1021"
     inkscape:window-x="0"
     inkscape:window-y="25"
     inkscape:window-maximized="1"
     showguides="true"
     inkscape:guide-bbox="true" />
  <metadata
     id="metadata5">
    <rdf:RDF>
      <cc:Work
         rdf:about="">
        <dc:format>image/svg+xml</dc:format>
        <dc:type
           rdf:resource="http://purl.org/dc/dcmitype/StillImage" />
        <dc:title></dc:title>
      </cc:Work>
    </rdf:RDF>
  </metadata>
  <g
     inkscape:label="Layer 1"
     inkscape:groupmode="layer"
     id="layer1">
    <rect
       style="fill:#222222;fill-opacity:1;stroke-width:0.35731348"
       id="rect4629"
       width="486.84915"
       height="486.84915"
       x="-135.96069"
       y="-86.161957" />
  </g>
  <g
     inkscape:groupmode="layer"
     id="layer3"
     inkscape:label="Layer 3" />
  <g
     inkscape:groupmode="layer"
     id="layer2"
     inkscape:label="Layer 2">
    <g
       id="g87"
       transform="matrix(0.03527778,0,0,-0.03527778,-118.30132,343.6477)"
       style="fill:#29d38a;fill-opacity:1;stroke:none">
      <path
         id="path83"
         d="m 5812,10135 c -348,-80 -650,-153 -670,-162 -94,-44 -169,-154 -286,-414 -91,-205 -119,-260 -166,-329 -112,-163 -223,-217 -431,-208 -108,5 -113,6 -444,125 -40,14 -102,27 -145,30 -73,5 -87,1 -580,-141 -278,-81 -518,-152 -535,-158 -136,-52 -232,-198 -375,-573 -122,-321 -188,-444 -284,-533 -56,-51 -111,-78 -204,-97 -92,-20 -177,-19 -350,6 -180,25 -315,23 -382,-7 C 919,7655 188,7181 111,7123 30,7061 6,6923 6,6515 5,6161 23,5929 72,5645 c 16,-96 44,-185 135,-440 63,-176 157,-437 208,-580 107,-298 624,-1740 721,-2010 36,-99 156,-434 267,-745 l 203,-565 39,-20 c 32,-15 66,-20 165,-23 457,-14 1415,259 1465,418 3,11 -61,268 -145,582 -300,1114 -432,1606 -485,1803 -184,681 -394,1463 -397,1479 -3,17 15,24 157,57 88,21 167,38 176,38 11,1 22,-20 37,-76 11,-43 188,-692 392,-1443 204,-751 461,-1696 571,-2100 273,-1004 261,-961 283,-981 34,-33 118,-42 321,-36 639,18 1736,316 1790,486 3,10 -107,526 -245,1147 -437,1965 -780,3518 -777,3521 9,8 343,79 348,74 4,-3 21,-67 37,-141 17,-74 121,-522 232,-995 245,-1050 353,-1513 430,-1840 32,-137 109,-466 170,-730 62,-264 140,-599 174,-744 69,-298 67,-292 165,-311 173,-32 646,15 1146,115 827,166 1415,379 1415,513 0,14 -211,1083 -470,2376 -258,1294 -470,2359 -470,2368 0,11 23,21 88,36 164,38 252,55 257,51 4,-5 147,-649 800,-3594 142,-641 231,-1026 241,-1036 64,-70 395,-78 804,-18 681,99 1306,306 1385,459 12,24 9,55 -35,301 -27,151 -96,544 -155,874 -58,330 -155,877 -215,1215 -60,338 -123,694 -140,790 -17,96 -80,452 -140,790 -126,713 -139,786 -265,1500 -52,294 -104,564 -116,600 -89,279 -391,830 -623,1135 -82,108 -182,206 -236,232 l -45,22 -155,-24 c -85,-13 -375,-58 -645,-100 -269,-41 -511,-82 -537,-91 -69,-22 -148,-78 -283,-198 -144,-129 -234,-187 -352,-227 -74,-26 -100,-30 -164,-27 -141,6 -262,86 -580,387 -287,272 -400,349 -517,357 -46,3 -181,-25 -690,-141 z"
         inkscape:connector-curvature="0"
         style="fill:#29d38a;fill-opacity:1" />
      <path
         id="path85"
         d="m 11440,6642 c 0,-10 11,-79 25,-153 13,-74 60,-336 104,-584 44,-247 103,-578 131,-735 28,-157 86,-485 130,-730 44,-245 124,-698 180,-1008 55,-310 103,-587 106,-616 4,-30 1,-85 -5,-122 -45,-259 -308,-461 -794,-608 -86,-26 -662,-171 -1977,-496 C 7731,1192 7820,1215 7794,1183 7628,976 7513,496 7561,211 c 15,-85 52,-165 90,-192 l 29,-21 393,37 c 215,20 532,49 702,65 493,46 2481,225 2955,266 184,15 370,113 561,291 151,142 256,293 304,437 l 26,78 39,1017 c 22,559 62,1601 90,2315 28,714 49,1300 48,1301 -2,2 -284,179 -627,395 -343,216 -648,408 -677,426 -47,30 -54,32 -54,16 z"
         inkscape:connector-curvature="0"
         style="fill:#29d38a;fill-opacity:1" />
    </g>
    <text
       xml:space="preserve"
       style="font-style:normal;font-weight:normal;font-size:28.24958229px;line-height:1.25;font-family:sans-serif;letter-spacing:0px;word-spacing:0px;fill:#222222;fill-opacity:1;stroke:none;stroke-width:0.7062397"
       x="193.09209"
       y="244.01662"
       id="text119-5-9"
       transform="matrix(0.9983082,-0.20884765,0.21994837,0.95568112,0,0)"><tspan
         sodipodi:role="line"
         id="tspan117-9-2"
         x="208.66951"
         y="244.01662"
         style="font-style:normal;font-variant:normal;font-weight:bold;font-stretch:normal;font-size:132.92735291px;font-family:sans-serif;-inkscape-font-specification:'sans-serif Bold';text-align:center;letter-spacing:31.15485001px;text-anchor:middle;fill:#222222;fill-opacity:1;stroke-width:0.7062397">N</tspan></text>
    <text
       xml:space="preserve"
       style="font-style:normal;font-weight:normal;font-size:28.24958229px;line-height:1.25;font-family:sans-serif;letter-spacing:0px;word-spacing:0px;fill:#222222;fill-opacity:1;stroke:none;stroke-width:0.7062397"
       x="-111.71526"
       y="246.43474"
       id="text119-5-9-2"
       transform="matrix(0.99830821,-0.20884765,0.21994837,0.95568111,0,0)"><tspan
         sodipodi:role="line"
         id="tspan117-9-2-4"
         x="-96.137825"
         y="246.43474"
         style="font-style:normal;font-variant:normal;font-weight:bold;font-stretch:normal;font-size:132.92735291px;font-family:sans-serif;-inkscape-font-specification:'sans-serif Bold';text-align:center;letter-spacing:31.15485191px;text-anchor:middle;fill:#222222;fill-opacity:1;stroke-width:0.7062397">L</tspan></text>
    <text
       xml:space="preserve"
       style="font-style:normal;font-weight:normal;font-size:28.24958229px;line-height:1.25;font-family:sans-serif;letter-spacing:0px;word-spacing:0px;fill:#222222;fill-opacity:1;stroke:none;stroke-width:0.7062397"
       x="87.615417"
       y="244.66934"
       id="text119-5-9-7"
       transform="matrix(0.99830821,-0.20884765,0.21994837,0.95568111,0,0)"><tspan
         sodipodi:role="line"
         id="tspan117-9-2-7"
         x="103.19285"
         y="244.66934"
         style="font-style:normal;font-variant:normal;font-weight:bold;font-stretch:normal;font-size:132.92735291px;font-family:sans-serif;-inkscape-font-specification:'sans-serif Bold';text-align:center;letter-spacing:31.15485191px;text-anchor:middle;fill:#222222;fill-opacity:1;stroke-width:0.7062397">A</tspan></text>
    <text
       xml:space="preserve"
       style="font-style:normal;font-weight:normal;font-size:28.24958229px;line-height:1.25;font-family:sans-serif;letter-spacing:0px;word-spacing:0px;fill:#222222;fill-opacity:1;stroke:none;stroke-width:0.7062397"
       x="-24.831831"
       y="245.13835"
       id="text119-5-9-5"
       transform="matrix(0.99830821,-0.20884765,0.21994837,0.95568111,0,0)"><tspan
         sodipodi:role="line"
         id="tspan117-9-2-48"
         x="-9.254405"
         y="245.13835"
         style="font-style:normal;font-variant:normal;font-weight:bold;font-stretch:normal;font-size:132.92735291px;font-family:sans-serif;-inkscape-font-specification:'sans-serif Bold';text-align:center;letter-spacing:31.15485191px;text-anchor:middle;fill:#222222;fill-opacity:1;stroke-width:0.7062397">E</tspan></text>
  </g>
</svg>
